<mxfile host="app.diagrams.net" agent="Mozilla/5.0 (Windows NT 10.0; Win64; x64) AppleWebKit/537.36 (KHTML, like Gecko) Chrome/137.0.0.0 Safari/537.36" version="27.1.4">
  <diagram name="ESP32 Flowchart" id="jl5N6YVE6Vh_jb1AV-Ho">
    <mxGraphModel dx="1209" dy="589" grid="0" gridSize="10" guides="1" tooltips="1" connect="1" arrows="1" fold="1" page="1" pageScale="1" pageWidth="850" pageHeight="1100" math="0" shadow="0">
      <root>
        <mxCell id="0" />
        <mxCell id="1" parent="0" />
        <mxCell id="Zm9yrRdoPQFd8B_W2CQc-11" style="edgeStyle=orthogonalEdgeStyle;rounded=0;orthogonalLoop=1;jettySize=auto;html=1;" parent="1" source="Zm9yrRdoPQFd8B_W2CQc-1" target="Zm9yrRdoPQFd8B_W2CQc-5" edge="1">
          <mxGeometry relative="1" as="geometry" />
        </mxCell>
        <mxCell id="Zm9yrRdoPQFd8B_W2CQc-1" value="&lt;font style=&quot;font-size: 18px;&quot;&gt;Start&lt;/font&gt;" style="rounded=1;whiteSpace=wrap;html=1;fillColor=#d5e8d4;strokeColor=#82b366;" parent="1" vertex="1">
          <mxGeometry x="365" y="40" width="115" height="30" as="geometry" />
        </mxCell>
        <mxCell id="Zm9yrRdoPQFd8B_W2CQc-12" style="edgeStyle=orthogonalEdgeStyle;rounded=0;orthogonalLoop=1;jettySize=auto;html=1;entryX=0.5;entryY=0;entryDx=0;entryDy=0;" parent="1" source="Zm9yrRdoPQFd8B_W2CQc-5" target="Zm9yrRdoPQFd8B_W2CQc-8" edge="1">
          <mxGeometry relative="1" as="geometry" />
        </mxCell>
        <mxCell id="Zm9yrRdoPQFd8B_W2CQc-5" value="&lt;div&gt;Initialize Serial, Sensors (DHT, DS18B20), Pins&lt;/div&gt;&lt;div&gt;&lt;br&gt;&lt;/div&gt;" style="rounded=0;whiteSpace=wrap;html=1;fillColor=#dae8fc;strokeColor=#6c8ebf;" parent="1" vertex="1">
          <mxGeometry x="282.5" y="100" width="280" height="40" as="geometry" />
        </mxCell>
        <mxCell id="Zm9yrRdoPQFd8B_W2CQc-13" style="edgeStyle=orthogonalEdgeStyle;rounded=0;orthogonalLoop=1;jettySize=auto;html=1;exitX=1;exitY=0.5;exitDx=0;exitDy=0;endArrow=classic;startFill=0;entryX=0.5;entryY=0;entryDx=0;entryDy=0;endFill=1;" parent="1" source="Zm9yrRdoPQFd8B_W2CQc-8" target="Zm9yrRdoPQFd8B_W2CQc-15" edge="1">
          <mxGeometry relative="1" as="geometry">
            <mxPoint x="540" y="200" as="targetPoint" />
            <Array as="points">
              <mxPoint x="540" y="195" />
            </Array>
          </mxGeometry>
        </mxCell>
        <mxCell id="Zm9yrRdoPQFd8B_W2CQc-17" style="edgeStyle=orthogonalEdgeStyle;rounded=0;orthogonalLoop=1;jettySize=auto;html=1;" parent="1" source="Zm9yrRdoPQFd8B_W2CQc-8" edge="1">
          <mxGeometry relative="1" as="geometry">
            <mxPoint x="422.505" y="270" as="targetPoint" />
          </mxGeometry>
        </mxCell>
        <mxCell id="Zm9yrRdoPQFd8B_W2CQc-8" value="&lt;div&gt;&lt;font style=&quot;font-size: 10px;&quot;&gt;&lt;br&gt;&lt;/font&gt;&lt;/div&gt;&lt;div&gt;&lt;font style=&quot;font-size: 10px;&quot;&gt;&amp;nbsp; Connect to&amp;nbsp;&lt;/font&gt;&lt;/div&gt;&lt;div&gt;&lt;font style=&quot;font-size: 10px;&quot;&gt;Wi-Fi&lt;/font&gt;&lt;/div&gt;&lt;div&gt;&lt;br&gt;&lt;/div&gt;" style="rhombus;whiteSpace=wrap;html=1;fillColor=#e1d5e7;strokeColor=#9673a6;" parent="1" vertex="1">
          <mxGeometry x="384.38" y="160" width="76.25" height="70" as="geometry" />
        </mxCell>
        <mxCell id="Zm9yrRdoPQFd8B_W2CQc-20" style="edgeStyle=orthogonalEdgeStyle;rounded=0;orthogonalLoop=1;jettySize=auto;html=1;entryX=1;entryY=1;entryDx=0;entryDy=0;" parent="1" source="Zm9yrRdoPQFd8B_W2CQc-15" target="Zm9yrRdoPQFd8B_W2CQc-8" edge="1">
          <mxGeometry relative="1" as="geometry">
            <Array as="points">
              <mxPoint x="442" y="240" />
            </Array>
          </mxGeometry>
        </mxCell>
        <mxCell id="Zm9yrRdoPQFd8B_W2CQc-15" value="Retry" style="rounded=0;whiteSpace=wrap;html=1;fillColor=#dae8fc;strokeColor=#6c8ebf;" parent="1" vertex="1">
          <mxGeometry x="510" y="230" width="60" height="20" as="geometry" />
        </mxCell>
        <mxCell id="Zm9yrRdoPQFd8B_W2CQc-16" value="&lt;font style=&quot;font-size: 9px;&quot;&gt;not connected&lt;/font&gt;" style="text;html=1;align=center;verticalAlign=middle;resizable=0;points=[];autosize=1;strokeColor=none;fillColor=none;" parent="1" vertex="1">
          <mxGeometry x="455.63" y="170" width="80" height="30" as="geometry" />
        </mxCell>
        <mxCell id="Zm9yrRdoPQFd8B_W2CQc-21" style="edgeStyle=orthogonalEdgeStyle;rounded=0;orthogonalLoop=1;jettySize=auto;html=1;" parent="1" edge="1">
          <mxGeometry relative="1" as="geometry">
            <mxPoint x="422.52" y="330" as="targetPoint" />
            <mxPoint x="421.9745454545455" y="300" as="sourcePoint" />
          </mxGeometry>
        </mxCell>
        <mxCell id="Zm9yrRdoPQFd8B_W2CQc-18" value="&lt;div&gt;Start Web Server&lt;/div&gt;" style="rounded=0;whiteSpace=wrap;html=1;fillColor=#dae8fc;strokeColor=#6c8ebf;" parent="1" vertex="1">
          <mxGeometry x="363.75" y="270" width="117.5" height="30" as="geometry" />
        </mxCell>
        <mxCell id="Zm9yrRdoPQFd8B_W2CQc-19" value="Connected" style="text;html=1;align=center;verticalAlign=middle;resizable=0;points=[];autosize=1;strokeColor=none;fillColor=none;" parent="1" vertex="1">
          <mxGeometry x="350" y="228" width="80" height="30" as="geometry" />
        </mxCell>
        <mxCell id="Zm9yrRdoPQFd8B_W2CQc-25" value="" style="edgeStyle=orthogonalEdgeStyle;rounded=0;orthogonalLoop=1;jettySize=auto;html=1;" parent="1" source="Zm9yrRdoPQFd8B_W2CQc-23" target="Zm9yrRdoPQFd8B_W2CQc-24" edge="1">
          <mxGeometry relative="1" as="geometry" />
        </mxCell>
        <mxCell id="Zm9yrRdoPQFd8B_W2CQc-23" value="&lt;div&gt;Connect to Blynk&lt;/div&gt;" style="rounded=0;whiteSpace=wrap;html=1;fillColor=#dae8fc;strokeColor=#6c8ebf;" parent="1" vertex="1">
          <mxGeometry x="363.76" y="330" width="117.5" height="30" as="geometry" />
        </mxCell>
        <mxCell id="Zm9yrRdoPQFd8B_W2CQc-27" value="" style="edgeStyle=orthogonalEdgeStyle;rounded=0;orthogonalLoop=1;jettySize=auto;html=1;" parent="1" source="Zm9yrRdoPQFd8B_W2CQc-24" target="Zm9yrRdoPQFd8B_W2CQc-26" edge="1">
          <mxGeometry relative="1" as="geometry" />
        </mxCell>
        <mxCell id="Zm9yrRdoPQFd8B_W2CQc-24" value="&lt;div style=&quot;&quot;&gt;Set Timer:&amp;nbsp;&lt;/div&gt;&lt;div&gt;&amp;nbsp; - every 2 sec: readAndSendSensorData()&lt;/div&gt;&lt;div&gt;&amp;nbsp; - every 100 ms: sendECGData()&lt;/div&gt;" style="rounded=0;whiteSpace=wrap;html=1;align=left;fillColor=#dae8fc;strokeColor=#6c8ebf;" parent="1" vertex="1">
          <mxGeometry x="290" y="390" width="265" height="50" as="geometry" />
        </mxCell>
        <mxCell id="Zm9yrRdoPQFd8B_W2CQc-29" value="" style="edgeStyle=orthogonalEdgeStyle;rounded=0;orthogonalLoop=1;jettySize=auto;html=1;" parent="1" source="Zm9yrRdoPQFd8B_W2CQc-26" target="Zm9yrRdoPQFd8B_W2CQc-28" edge="1">
          <mxGeometry relative="1" as="geometry" />
        </mxCell>
        <mxCell id="Zm9yrRdoPQFd8B_W2CQc-26" value="&lt;div&gt;Enter Main Loop&lt;/div&gt;" style="rounded=0;whiteSpace=wrap;html=1;fillColor=#fff2cc;strokeColor=#d6b656;" parent="1" vertex="1">
          <mxGeometry x="362.5" y="470" width="120" height="30" as="geometry" />
        </mxCell>
        <mxCell id="Zm9yrRdoPQFd8B_W2CQc-33" value="" style="edgeStyle=orthogonalEdgeStyle;rounded=0;orthogonalLoop=1;jettySize=auto;html=1;" parent="1" source="Zm9yrRdoPQFd8B_W2CQc-28" target="Zm9yrRdoPQFd8B_W2CQc-30" edge="1">
          <mxGeometry relative="1" as="geometry" />
        </mxCell>
        <mxCell id="Zm9yrRdoPQFd8B_W2CQc-28" value="&lt;div&gt;- Blynk.run()&lt;/div&gt;&lt;div&gt;&lt;span style=&quot;background-color: transparent; color: light-dark(rgb(0, 0, 0), rgb(255, 255, 255));&quot;&gt;-&lt;/span&gt;&lt;span style=&quot;background-color: transparent; color: light-dark(rgb(0, 0, 0), rgb(255, 255, 255));&quot;&gt;&amp;nbsp;timer.run()&lt;/span&gt;&lt;/div&gt;&lt;div&gt;-&lt;span style=&quot;background-color: transparent; color: light-dark(rgb(0, 0, 0), rgb(255, 255, 255));&quot;&gt;server.handleClient()&lt;/span&gt;&lt;/div&gt;" style="rounded=0;whiteSpace=wrap;html=1;align=left;fillColor=#dae8fc;strokeColor=#6c8ebf;" parent="1" vertex="1">
          <mxGeometry x="318" y="540" width="209" height="50" as="geometry" />
        </mxCell>
        <mxCell id="Zm9yrRdoPQFd8B_W2CQc-34" style="edgeStyle=orthogonalEdgeStyle;rounded=0;orthogonalLoop=1;jettySize=auto;html=1;" parent="1" source="Zm9yrRdoPQFd8B_W2CQc-30" edge="1">
          <mxGeometry relative="1" as="geometry">
            <mxPoint x="550" y="710" as="targetPoint" />
            <Array as="points">
              <mxPoint x="550" y="660" />
            </Array>
          </mxGeometry>
        </mxCell>
        <mxCell id="Zm9yrRdoPQFd8B_W2CQc-39" style="edgeStyle=orthogonalEdgeStyle;rounded=0;orthogonalLoop=1;jettySize=auto;html=1;" parent="1" source="Zm9yrRdoPQFd8B_W2CQc-30" edge="1">
          <mxGeometry relative="1" as="geometry">
            <mxPoint x="300" y="720" as="targetPoint" />
          </mxGeometry>
        </mxCell>
        <mxCell id="Zm9yrRdoPQFd8B_W2CQc-30" value="&lt;div&gt;&lt;font style=&quot;font-size: 11px;&quot;&gt;&lt;font style=&quot;&quot;&gt;If&amp;nbsp;&amp;nbsp;&lt;/font&gt;&lt;span style=&quot;background-color: transparent; color: light-dark(rgb(0, 0, 0), rgb(255, 255, 255));&quot;&gt;HTTP&amp;nbsp;&lt;/span&gt;&lt;/font&gt;&lt;/div&gt;&lt;div&gt;&lt;font style=&quot;font-size: 11px;&quot;&gt;request to &quot;/&quot;&lt;/font&gt;&lt;/div&gt;" style="rhombus;whiteSpace=wrap;html=1;fillColor=#e1d5e7;strokeColor=#9673a6;strokeWidth=1;perimeterSpacing=0;" parent="1" vertex="1">
          <mxGeometry x="377.5" y="620" width="90" height="80" as="geometry" />
        </mxCell>
        <mxCell id="Zm9yrRdoPQFd8B_W2CQc-37" value="" style="edgeStyle=orthogonalEdgeStyle;rounded=0;orthogonalLoop=1;jettySize=auto;html=1;" parent="1" source="Zm9yrRdoPQFd8B_W2CQc-35" target="Zm9yrRdoPQFd8B_W2CQc-36" edge="1">
          <mxGeometry relative="1" as="geometry" />
        </mxCell>
        <mxCell id="Zm9yrRdoPQFd8B_W2CQc-35" value="call handleRoot()" style="rounded=0;whiteSpace=wrap;html=1;fillColor=#dae8fc;strokeColor=#6c8ebf;" parent="1" vertex="1">
          <mxGeometry x="500" y="710" width="100" height="30" as="geometry" />
        </mxCell>
        <mxCell id="Zm9yrRdoPQFd8B_W2CQc-51" value="" style="edgeStyle=orthogonalEdgeStyle;rounded=0;orthogonalLoop=1;jettySize=auto;html=1;" parent="1" source="Zm9yrRdoPQFd8B_W2CQc-36" target="Zm9yrRdoPQFd8B_W2CQc-50" edge="1">
          <mxGeometry relative="1" as="geometry" />
        </mxCell>
        <mxCell id="Zm9yrRdoPQFd8B_W2CQc-36" value="&lt;div&gt;Show HTML with sensor values&lt;/div&gt;" style="whiteSpace=wrap;html=1;rounded=0;fillColor=#dae8fc;strokeColor=#6c8ebf;" parent="1" vertex="1">
          <mxGeometry x="500" y="780" width="100" height="40" as="geometry" />
        </mxCell>
        <mxCell id="Zm9yrRdoPQFd8B_W2CQc-38" value="True" style="text;html=1;align=center;verticalAlign=middle;resizable=0;points=[];autosize=1;strokeColor=none;fillColor=none;" parent="1" vertex="1">
          <mxGeometry x="475" y="628" width="50" height="30" as="geometry" />
        </mxCell>
        <mxCell id="Zm9yrRdoPQFd8B_W2CQc-44" value="" style="edgeStyle=orthogonalEdgeStyle;rounded=0;orthogonalLoop=1;jettySize=auto;html=1;" parent="1" source="Zm9yrRdoPQFd8B_W2CQc-40" target="Zm9yrRdoPQFd8B_W2CQc-43" edge="1">
          <mxGeometry relative="1" as="geometry" />
        </mxCell>
        <mxCell id="Zm9yrRdoPQFd8B_W2CQc-40" value="&lt;div&gt;readAndSendSensorData():&lt;/div&gt;&lt;div&gt;&amp;nbsp; - Read room temp, humidity from DHT11&lt;/div&gt;&lt;div&gt;&amp;nbsp; - Read body temp from DS18B20&lt;/div&gt;&lt;div&gt;&amp;nbsp; - Convert body temp to Fahrenheit&lt;/div&gt;&lt;div&gt;&amp;nbsp; - Print values to Serial&lt;/div&gt;&lt;div&gt;&amp;nbsp; - Send to Blynk (V0, V1, V2)&lt;/div&gt;" style="rounded=0;whiteSpace=wrap;html=1;align=left;fillColor=#dae8fc;strokeColor=#6c8ebf;" parent="1" vertex="1">
          <mxGeometry x="180" y="720" width="230" height="100" as="geometry" />
        </mxCell>
        <mxCell id="Zm9yrRdoPQFd8B_W2CQc-41" value="False" style="text;html=1;align=center;verticalAlign=middle;resizable=0;points=[];autosize=1;strokeColor=none;fillColor=none;" parent="1" vertex="1">
          <mxGeometry x="313.75" y="628" width="50" height="30" as="geometry" />
        </mxCell>
        <mxCell id="Zm9yrRdoPQFd8B_W2CQc-46" value="" style="edgeStyle=orthogonalEdgeStyle;rounded=0;orthogonalLoop=1;jettySize=auto;html=1;" parent="1" source="Zm9yrRdoPQFd8B_W2CQc-43" target="Zm9yrRdoPQFd8B_W2CQc-45" edge="1">
          <mxGeometry relative="1" as="geometry" />
        </mxCell>
        <mxCell id="Zm9yrRdoPQFd8B_W2CQc-43" value="&lt;div&gt;sendECGData():&lt;/div&gt;&lt;div&gt;&amp;nbsp; - Check ECG leads-off detection pins&lt;/div&gt;&lt;div&gt;&amp;nbsp; - If either lead is off: ecgValue = 0&lt;/div&gt;&lt;div&gt;&amp;nbsp; - Else read analog ECG pin&lt;/div&gt;&lt;div&gt;&amp;nbsp; - Print to Serial&lt;/div&gt;&lt;div&gt;&amp;nbsp; - Send to Blynk (V3)&lt;/div&gt;" style="rounded=0;whiteSpace=wrap;html=1;align=left;fillColor=#dae8fc;strokeColor=#6c8ebf;" parent="1" vertex="1">
          <mxGeometry x="180" y="870" width="230" height="100" as="geometry" />
        </mxCell>
        <mxCell id="Zm9yrRdoPQFd8B_W2CQc-47" style="edgeStyle=orthogonalEdgeStyle;rounded=0;orthogonalLoop=1;jettySize=auto;html=1;endArrow=none;startFill=0;" parent="1" source="Zm9yrRdoPQFd8B_W2CQc-45" edge="1">
          <mxGeometry relative="1" as="geometry">
            <mxPoint x="160" y="485" as="targetPoint" />
          </mxGeometry>
        </mxCell>
        <mxCell id="Zm9yrRdoPQFd8B_W2CQc-45" value="&lt;div&gt;Repeat Main Loop&lt;/div&gt;" style="rounded=0;whiteSpace=wrap;html=1;fillColor=#fff2cc;strokeColor=#d6b656;" parent="1" vertex="1">
          <mxGeometry x="235" y="1000" width="120" height="30" as="geometry" />
        </mxCell>
        <mxCell id="Zm9yrRdoPQFd8B_W2CQc-48" value="" style="endArrow=classic;html=1;rounded=0;entryX=0;entryY=0.5;entryDx=0;entryDy=0;endFill=1;" parent="1" target="Zm9yrRdoPQFd8B_W2CQc-26" edge="1">
          <mxGeometry width="50" height="50" relative="1" as="geometry">
            <mxPoint x="160" y="485" as="sourcePoint" />
            <mxPoint x="210" y="430" as="targetPoint" />
          </mxGeometry>
        </mxCell>
        <mxCell id="Zm9yrRdoPQFd8B_W2CQc-52" style="edgeStyle=orthogonalEdgeStyle;rounded=0;orthogonalLoop=1;jettySize=auto;html=1;exitX=1;exitY=0.5;exitDx=0;exitDy=0;endArrow=none;startFill=0;" parent="1" source="Zm9yrRdoPQFd8B_W2CQc-50" edge="1">
          <mxGeometry relative="1" as="geometry">
            <mxPoint x="654" y="485" as="targetPoint" />
          </mxGeometry>
        </mxCell>
        <mxCell id="Zm9yrRdoPQFd8B_W2CQc-50" value="&lt;div&gt;Repeat Main Loop&lt;/div&gt;" style="rounded=0;whiteSpace=wrap;html=1;fillColor=#fff2cc;strokeColor=#d6b656;" parent="1" vertex="1">
          <mxGeometry x="490" y="856" width="120" height="30" as="geometry" />
        </mxCell>
        <mxCell id="Zm9yrRdoPQFd8B_W2CQc-53" value="" style="endArrow=none;html=1;rounded=0;exitX=1;exitY=0.5;exitDx=0;exitDy=0;" parent="1" source="Zm9yrRdoPQFd8B_W2CQc-26" edge="1">
          <mxGeometry width="50" height="50" relative="1" as="geometry">
            <mxPoint x="542" y="508" as="sourcePoint" />
            <mxPoint x="654" y="485" as="targetPoint" />
          </mxGeometry>
        </mxCell>
        <mxCell id="Zm9yrRdoPQFd8B_W2CQc-55" value="" style="edgeStyle=orthogonalEdgeStyle;rounded=0;orthogonalLoop=1;jettySize=auto;html=1;entryX=1;entryY=0.5;entryDx=0;entryDy=0;" parent="1" target="Zm9yrRdoPQFd8B_W2CQc-26" edge="1">
          <mxGeometry relative="1" as="geometry">
            <mxPoint x="521" y="485" as="sourcePoint" />
            <mxPoint x="517" y="549" as="targetPoint" />
          </mxGeometry>
        </mxCell>
      </root>
    </mxGraphModel>
  </diagram>
</mxfile>
